<svg width="37" height="37" viewBox="0 0 37 37" fill="none" xmlns="http://www.w3.org/2000/svg">
<circle cx="18.5" cy="18.5" r="18.5" fill="#141414"/>
<g clip-path="url(#clip0_1_2)">
<path d="M31 10.557C30.117 10.949 29.168 11.213 28.172 11.332C29.189 10.723 29.97 9.75799 30.337 8.60799C29.386 9.17199 28.332 9.58199 27.21 9.80299C26.313 8.84599 25.032 8.24799 23.616 8.24799C20.437 8.24799 18.101 11.214 18.819 14.293C14.728 14.088 11.1 12.128 8.671 9.14899C7.381 11.362 8.002 14.257 10.194 15.723C9.388 15.697 8.628 15.476 7.965 15.107C7.911 17.388 9.546 19.522 11.914 19.997C11.221 20.185 10.462 20.229 9.69 20.081C10.316 22.037 12.134 23.46 14.29 23.5C12.22 25.123 9.612 25.848 7 25.54C9.179 26.937 11.768 27.752 14.548 27.752C23.69 27.752 28.855 20.031 28.543 13.106C29.505 12.411 30.34 11.544 31 10.557Z" fill="white"/>
</g>
<defs>
<clipPath id="clip0_1_2">
<rect width="24" height="24" fill="white" transform="translate(7 6)"/>
</clipPath>
</defs>
</svg>
