<svg width="37" height="37" viewBox="0 0 37 37" fill="none" xmlns="http://www.w3.org/2000/svg">
<circle cx="18.5" cy="18.5" r="18.5" fill="#141414"/>
<g clip-path="url(#clip0_1_2)">
<path fill-rule="evenodd" clip-rule="evenodd" d="M29.288 27H8.712C7.767 27 7 26.233 7 25.288V11.712C7 10.767 7.767 10 8.712 10H29.288C30.233 10 31 10.767 31 11.712V25.288C31 26.233 30.233 27 29.288 27ZM19 20.914L9.658 14.431L9.638 26H28.322V14.431L19 20.914ZM27.869 11H10.08L19 17.229C19 17.229 25.252 12.823 27.869 11Z" fill="#FFFAFA"/>
</g>
<defs>
<clipPath id="clip0_1_2">
<rect width="24" height="24" fill="white" transform="translate(7 6)"/>
</clipPath>
</defs>
</svg>
